<mxfile host="app.diagrams.net" modified="2023-11-05T20:31:58.051Z" agent="Mozilla/5.0 (Windows NT 10.0; Win64; x64) AppleWebKit/537.36 (KHTML, like Gecko) Chrome/119.0.0.0 Safari/537.36 Edg/119.0.0.0" etag="e2QOHR_aGU4ko2FHVKzS" version="22.0.8" type="google">
  <diagram name="Page-1" id="fFjmgV0kxvayMxiaaTl5">
    <mxGraphModel grid="1" page="1" gridSize="10" guides="1" tooltips="1" connect="1" arrows="1" fold="1" pageScale="1" pageWidth="850" pageHeight="1100" math="0" shadow="0">
      <root>
        <mxCell id="0" />
        <mxCell id="1" parent="0" />
        <mxCell id="HyOI7mu6x7VEQ828z30I-1" value="" style="ellipse;whiteSpace=wrap;html=1;aspect=fixed;" vertex="1" parent="1">
          <mxGeometry x="320" y="125" width="650" height="650" as="geometry" />
        </mxCell>
        <mxCell id="HyOI7mu6x7VEQ828z30I-30" value="&lt;span style=&quot;font-size: 14px;&quot;&gt;F&lt;sub&gt;switch&lt;/sub&gt;&lt;/span&gt;" style="ellipse;whiteSpace=wrap;html=1;aspect=fixed;fillColor=#A9C4EB;" vertex="1" parent="1">
          <mxGeometry x="530" y="210" width="80" height="80" as="geometry" />
        </mxCell>
        <mxCell id="HyOI7mu6x7VEQ828z30I-31" value="&lt;span style=&quot;font-size: 14px;&quot;&gt;F&lt;sub&gt;Sollar_Array_Wing&lt;/sub&gt;&lt;/span&gt;" style="ellipse;whiteSpace=wrap;html=1;aspect=fixed;fillColor=#A9C4EB;" vertex="1" parent="1">
          <mxGeometry x="380" y="409.5" width="80" height="80" as="geometry" />
        </mxCell>
        <mxCell id="HyOI7mu6x7VEQ828z30I-32" value="&lt;font style=&quot;font-size: 14px;&quot;&gt;Overcharging&lt;/font&gt;" style="ellipse;whiteSpace=wrap;html=1;aspect=fixed;fillColor=#FFFFFF;strokeColor=#F19C99;strokeWidth=2;dashed=1;dashPattern=8 8;" vertex="1" parent="1">
          <mxGeometry x="550" y="430" width="50" height="50" as="geometry" />
        </mxCell>
        <mxCell id="HyOI7mu6x7VEQ828z30I-33" value="&lt;font style=&quot;font-size: 14px;&quot;&gt;Undercharging&lt;/font&gt;" style="ellipse;whiteSpace=wrap;html=1;aspect=fixed;fillColor=#FFFFFF;strokeColor=#F19C99;strokeWidth=2;dashed=1;dashPattern=8 8;" vertex="1" parent="1">
          <mxGeometry x="570" y="525" width="50" height="50" as="geometry" />
        </mxCell>
        <mxCell id="HyOI7mu6x7VEQ828z30I-34" value="&lt;span style=&quot;font-size: 14px;&quot;&gt;F&lt;/span&gt;&lt;span style=&quot;font-size: 11.6667px;&quot;&gt;&lt;sub&gt;Battery_Charge_Discharge_Units&lt;/sub&gt;&lt;/span&gt;" style="ellipse;whiteSpace=wrap;html=1;aspect=fixed;fillColor=#A9C4EB;" vertex="1" parent="1">
          <mxGeometry x="410" y="550" width="80" height="80" as="geometry" />
        </mxCell>
        <mxCell id="HyOI7mu6x7VEQ828z30I-37" value="" style="ellipse;whiteSpace=wrap;html=1;aspect=fixed;fillColor=#000000;strokeColor=#000000;" vertex="1" parent="1">
          <mxGeometry x="490" y="500" width="10" height="10" as="geometry" />
        </mxCell>
        <mxCell id="HyOI7mu6x7VEQ828z30I-38" value="" style="endArrow=classic;html=1;rounded=0;" edge="1" parent="1" source="HyOI7mu6x7VEQ828z30I-31" target="HyOI7mu6x7VEQ828z30I-37">
          <mxGeometry width="50" height="50" relative="1" as="geometry">
            <mxPoint x="230" y="630" as="sourcePoint" />
            <mxPoint x="250" y="590" as="targetPoint" />
          </mxGeometry>
        </mxCell>
        <mxCell id="HyOI7mu6x7VEQ828z30I-39" value="" style="endArrow=classic;html=1;rounded=0;" edge="1" parent="1" source="HyOI7mu6x7VEQ828z30I-34" target="HyOI7mu6x7VEQ828z30I-37">
          <mxGeometry width="50" height="50" relative="1" as="geometry">
            <mxPoint x="240" y="660" as="sourcePoint" />
            <mxPoint x="290" y="610" as="targetPoint" />
          </mxGeometry>
        </mxCell>
        <mxCell id="HyOI7mu6x7VEQ828z30I-40" value="" style="endArrow=classic;html=1;rounded=0;" edge="1" parent="1" source="HyOI7mu6x7VEQ828z30I-37" target="HyOI7mu6x7VEQ828z30I-32">
          <mxGeometry width="50" height="50" relative="1" as="geometry">
            <mxPoint x="330" y="610" as="sourcePoint" />
            <mxPoint x="380" y="560" as="targetPoint" />
          </mxGeometry>
        </mxCell>
        <mxCell id="HyOI7mu6x7VEQ828z30I-41" value="" style="endArrow=classic;html=1;rounded=0;" edge="1" parent="1" source="HyOI7mu6x7VEQ828z30I-37" target="HyOI7mu6x7VEQ828z30I-33">
          <mxGeometry width="50" height="50" relative="1" as="geometry">
            <mxPoint x="410" y="620" as="sourcePoint" />
            <mxPoint x="460" y="570" as="targetPoint" />
          </mxGeometry>
        </mxCell>
        <mxCell id="HyOI7mu6x7VEQ828z30I-42" value="&lt;font size=&quot;1&quot;&gt;Bad update&lt;/font&gt;&lt;font style=&quot;font-size: 10px;&quot;&gt;&amp;nbsp;&lt;/font&gt;" style="ellipse;whiteSpace=wrap;html=1;aspect=fixed;fillColor=#FFFFFF;strokeColor=#F19C99;strokeWidth=2;dashed=1;dashPattern=8 8;" vertex="1" parent="1">
          <mxGeometry x="650" y="630" width="50" height="50" as="geometry" />
        </mxCell>
        <mxCell id="HyOI7mu6x7VEQ828z30I-43" value="&lt;font size=&quot;1&quot;&gt;Eccentric Behavior&amp;nbsp;&lt;/font&gt;" style="ellipse;whiteSpace=wrap;html=1;aspect=fixed;fillColor=#FFFFFF;strokeColor=#F19C99;strokeWidth=2;dashed=1;dashPattern=8 8;" vertex="1" parent="1">
          <mxGeometry x="760" y="630" width="50" height="50" as="geometry" />
        </mxCell>
        <mxCell id="HyOI7mu6x7VEQ828z30I-44" value="" style="shape=flexArrow;endArrow=classic;html=1;rounded=0;width=0.3225806451612903;endSize=1.064804469273743;endWidth=2.980717246350694;strokeColor=#F19C99;" edge="1" parent="1" source="HyOI7mu6x7VEQ828z30I-42" target="HyOI7mu6x7VEQ828z30I-46">
          <mxGeometry width="50" height="50" relative="1" as="geometry">
            <mxPoint x="1145" y="145" as="sourcePoint" />
            <mxPoint x="555" y="357" as="targetPoint" />
          </mxGeometry>
        </mxCell>
        <mxCell id="HyOI7mu6x7VEQ828z30I-45" value="" style="shape=flexArrow;endArrow=classic;html=1;rounded=0;width=0.3225806451612903;endSize=1.8800000000000001;endWidth=5.341935483870968;strokeColor=#F19C99;" edge="1" parent="1" source="HyOI7mu6x7VEQ828z30I-43" target="HyOI7mu6x7VEQ828z30I-46">
          <mxGeometry width="50" height="50" relative="1" as="geometry">
            <mxPoint x="338" y="404" as="sourcePoint" />
            <mxPoint x="592" y="378" as="targetPoint" />
          </mxGeometry>
        </mxCell>
        <mxCell id="HyOI7mu6x7VEQ828z30I-46" value="&lt;span style=&quot;font-size: 14px;&quot;&gt;F&lt;sub&gt;software&lt;/sub&gt;&lt;/span&gt;" style="ellipse;whiteSpace=wrap;html=1;aspect=fixed;fillColor=#A9C4EB;" vertex="1" parent="1">
          <mxGeometry x="690" y="530" width="80" height="80" as="geometry" />
        </mxCell>
        <mxCell id="HyOI7mu6x7VEQ828z30I-47" value="&lt;span style=&quot;font-size: 14px;&quot;&gt;F&lt;sub&gt;DCSU&lt;/sub&gt;&lt;/span&gt;" style="ellipse;whiteSpace=wrap;html=1;aspect=fixed;fillColor=#A9C4EB;" vertex="1" parent="1">
          <mxGeometry x="660" y="420" width="80" height="80" as="geometry" />
        </mxCell>
        <mxCell id="HyOI7mu6x7VEQ828z30I-48" value="" style="endArrow=classic;html=1;rounded=0;" edge="1" parent="1" source="HyOI7mu6x7VEQ828z30I-46" target="HyOI7mu6x7VEQ828z30I-47">
          <mxGeometry width="50" height="50" relative="1" as="geometry">
            <mxPoint x="650" y="590" as="sourcePoint" />
            <mxPoint x="700" y="540" as="targetPoint" />
          </mxGeometry>
        </mxCell>
        <mxCell id="HyOI7mu6x7VEQ828z30I-50" value="" style="shape=flexArrow;endArrow=classic;html=1;rounded=0;width=0.3225806451612903;endSize=1.064804469273743;endWidth=2.980717246350694;strokeColor=#F19C99;" edge="1" parent="1" source="HyOI7mu6x7VEQ828z30I-32" target="HyOI7mu6x7VEQ828z30I-47">
          <mxGeometry width="50" height="50" relative="1" as="geometry">
            <mxPoint x="1080" y="480" as="sourcePoint" />
            <mxPoint x="1113" y="454" as="targetPoint" />
          </mxGeometry>
        </mxCell>
        <mxCell id="HyOI7mu6x7VEQ828z30I-51" value="" style="shape=flexArrow;endArrow=classic;html=1;rounded=0;width=0.3225806451612903;endSize=1.064804469273743;endWidth=2.980717246350694;strokeColor=#F19C99;" edge="1" parent="1" source="HyOI7mu6x7VEQ828z30I-33" target="HyOI7mu6x7VEQ828z30I-47">
          <mxGeometry width="50" height="50" relative="1" as="geometry">
            <mxPoint x="430" y="512" as="sourcePoint" />
            <mxPoint x="670" y="476" as="targetPoint" />
          </mxGeometry>
        </mxCell>
        <mxCell id="HyOI7mu6x7VEQ828z30I-54" value="&lt;font style=&quot;font-size: 14px;&quot;&gt;Overheating&lt;/font&gt;" style="ellipse;whiteSpace=wrap;html=1;aspect=fixed;fillColor=#FFFFFF;strokeColor=#F19C99;strokeWidth=2;dashed=1;dashPattern=8 8;" vertex="1" parent="1">
          <mxGeometry x="670" y="210" width="50" height="50" as="geometry" />
        </mxCell>
        <mxCell id="HyOI7mu6x7VEQ828z30I-55" value="&lt;span style=&quot;font-size: 14px;&quot;&gt;H&lt;sub&gt;DCSU&lt;/sub&gt;&lt;/span&gt;" style="ellipse;whiteSpace=wrap;html=1;aspect=fixed;fillColor=#CCCCCC;" vertex="1" parent="1">
          <mxGeometry x="630" y="294.5" width="80" height="80" as="geometry" />
        </mxCell>
        <mxCell id="HyOI7mu6x7VEQ828z30I-56" value="" style="shape=flexArrow;endArrow=classic;html=1;rounded=0;width=0.3225806451612903;endSize=1.064804469273743;endWidth=2.980717246350694;strokeColor=#F19C99;" edge="1" parent="1" source="HyOI7mu6x7VEQ828z30I-54" target="HyOI7mu6x7VEQ828z30I-55">
          <mxGeometry width="50" height="50" relative="1" as="geometry">
            <mxPoint x="1305.0033022044959" y="359.6409081756615" as="sourcePoint" />
            <mxPoint x="1351" y="353" as="targetPoint" />
          </mxGeometry>
        </mxCell>
        <mxCell id="HyOI7mu6x7VEQ828z30I-57" value="" style="shape=flexArrow;endArrow=classic;html=1;rounded=0;width=0.3225806451612903;endSize=1.064804469273743;endWidth=2.980717246350694;strokeColor=#F19C99;" edge="1" parent="1" source="HyOI7mu6x7VEQ828z30I-63" target="HyOI7mu6x7VEQ828z30I-55">
          <mxGeometry width="50" height="50" relative="1" as="geometry">
            <mxPoint x="740" y="420" as="sourcePoint" />
            <mxPoint x="800" y="330" as="targetPoint" />
          </mxGeometry>
        </mxCell>
        <mxCell id="HyOI7mu6x7VEQ828z30I-58" value="&lt;font style=&quot;font-size: 14px;&quot;&gt;Shortcircut&lt;/font&gt;" style="ellipse;whiteSpace=wrap;html=1;aspect=fixed;fillColor=#FFFFFF;strokeColor=#F19C99;strokeWidth=2;dashed=1;dashPattern=8 8;" vertex="1" parent="1">
          <mxGeometry x="760" y="240" width="50" height="50" as="geometry" />
        </mxCell>
        <mxCell id="HyOI7mu6x7VEQ828z30I-59" value="" style="shape=flexArrow;endArrow=classic;html=1;rounded=0;width=0.3225806451612903;endSize=1.064804469273743;endWidth=2.980717246350694;strokeColor=#F19C99;" edge="1" parent="1" source="HyOI7mu6x7VEQ828z30I-58" target="HyOI7mu6x7VEQ828z30I-55">
          <mxGeometry width="50" height="50" relative="1" as="geometry">
            <mxPoint x="1437" y="274" as="sourcePoint" />
            <mxPoint x="1412" y="314" as="targetPoint" />
          </mxGeometry>
        </mxCell>
        <mxCell id="HyOI7mu6x7VEQ828z30I-60" value="&lt;font style=&quot;font-size: 10px;&quot;&gt;Agent Intervention&lt;/font&gt;" style="ellipse;whiteSpace=wrap;html=1;aspect=fixed;fillColor=#FFFFFF;strokeColor=#F19C99;strokeWidth=2;dashed=1;dashPattern=8 8;direction=north;" vertex="1" parent="1">
          <mxGeometry x="760" y="324.5" width="50" height="50" as="geometry" />
        </mxCell>
        <mxCell id="HyOI7mu6x7VEQ828z30I-61" value="" style="shape=flexArrow;endArrow=classic;html=1;rounded=0;width=0.3225806451612903;endSize=1.064804469273743;endWidth=2.980717246350694;strokeColor=#F19C99;" edge="1" parent="1" source="HyOI7mu6x7VEQ828z30I-60" target="HyOI7mu6x7VEQ828z30I-55">
          <mxGeometry width="50" height="50" relative="1" as="geometry">
            <mxPoint x="739" y="424" as="sourcePoint" />
            <mxPoint x="774" y="395" as="targetPoint" />
          </mxGeometry>
        </mxCell>
        <mxCell id="HyOI7mu6x7VEQ828z30I-62" value="" style="endArrow=classic;html=1;rounded=0;" edge="1" parent="1" source="HyOI7mu6x7VEQ828z30I-30" target="HyOI7mu6x7VEQ828z30I-55">
          <mxGeometry width="50" height="50" relative="1" as="geometry">
            <mxPoint x="690" y="380" as="sourcePoint" />
            <mxPoint x="740" y="330" as="targetPoint" />
          </mxGeometry>
        </mxCell>
        <mxCell id="HyOI7mu6x7VEQ828z30I-63" value="&lt;font style=&quot;font-size: 14px;&quot;&gt;Aging&lt;/font&gt;" style="ellipse;whiteSpace=wrap;html=1;aspect=fixed;fillColor=#FFFFFF;strokeColor=#F19C99;strokeWidth=2;dashed=1;dashPattern=8 8;" vertex="1" parent="1">
          <mxGeometry x="540" y="330" width="50" height="50" as="geometry" />
        </mxCell>
        <mxCell id="HyOI7mu6x7VEQ828z30I-65" value="" style="endArrow=classic;html=1;rounded=0;" edge="1" parent="1" source="HyOI7mu6x7VEQ828z30I-55" target="HyOI7mu6x7VEQ828z30I-47">
          <mxGeometry width="50" height="50" relative="1" as="geometry">
            <mxPoint x="810" y="480" as="sourcePoint" />
            <mxPoint x="860" y="430" as="targetPoint" />
          </mxGeometry>
        </mxCell>
        <mxCell id="HyOI7mu6x7VEQ828z30I-68" value="&lt;font size=&quot;1&quot;&gt;Radiation Loss&lt;/font&gt;" style="ellipse;whiteSpace=wrap;html=1;aspect=fixed;fillColor=#FFFFFF;strokeColor=#F19C99;strokeWidth=2;dashed=1;dashPattern=8 8;" vertex="1" parent="1">
          <mxGeometry x="810" y="550" width="50" height="50" as="geometry" />
        </mxCell>
        <mxCell id="HyOI7mu6x7VEQ828z30I-69" value="" style="shape=flexArrow;endArrow=classic;html=1;rounded=0;width=0.3225806451612903;endSize=1.8800000000000001;endWidth=5.341935483870968;strokeColor=#F19C99;" edge="1" parent="1" source="HyOI7mu6x7VEQ828z30I-68" target="HyOI7mu6x7VEQ828z30I-46">
          <mxGeometry width="50" height="50" relative="1" as="geometry">
            <mxPoint x="781" y="644" as="sourcePoint" />
            <mxPoint x="762" y="614" as="targetPoint" />
          </mxGeometry>
        </mxCell>
        <mxCell id="HyOI7mu6x7VEQ828z30I-70" value="&lt;b&gt;&lt;font style=&quot;font-size: 18px;&quot;&gt;Direct Current Switching Unit&lt;/font&gt;&lt;/b&gt;" style="text;html=1;strokeColor=none;fillColor=none;align=center;verticalAlign=middle;whiteSpace=wrap;rounded=0;" vertex="1" parent="1">
          <mxGeometry x="580" y="150" width="160" height="30" as="geometry" />
        </mxCell>
      </root>
    </mxGraphModel>
  </diagram>
</mxfile>
